<?xml version="1.0" encoding="UTF-8"?>
<svg version="1.1" viewBox="0 0 900 900" width="900" height="900" xmlns="http://www.w3.org/2000/svg">
<path transform="translate(0)" d="m0 0h900v900h-900z" fill="#010101"/>
<path transform="translate(400,107)" d="m0 0h109l1 96h2v-2l5-1v-2l16-8 15-9 8-5 6-2v-2l5-2 12-7h2v-2l7-2v-2l6-2 3 7 2 1 8 16 6 10v3h2l9 16 6 10v3h2l5 10 5 8v2h2l1 5h2l-1 5-11 6-6 4h-2v2l-6 2-3 3-5 1v2l-9 4-4 1-1 3-5 1v2l-10 5h-2v2l-14 8-4 2 7 3v2l5 2 9 5 5 2v2l9 3 5 3v2l4 1 3 1 1 2 4 1 1 2 4 1 3 3 11 6 12 7v4l-3 3-5 9-8 16h-2l-2 5-6 12h-2l-1 5-4 7h-2l-1 5h-2l-1 5-3 3-2 6-2 1-2 5h-2l-1 6-4 2-4-1-1-2-6-2v-2l-5-1-2-1v-2l-5-1-9-5v-2l-5-1-3-2v-2l-5-2-5-3-4-1v-2l-7-2-1-2-8-3-8-5-5-2 1 96h-110v-97l-24 13-13 8-21 12-3 2h-3v2l-8 4-8 5-5 2-4-5-13-24-16-27-10-18-10-17-1-4 10-6 14-8 21-13 11-6 12-7 14-8-9-6-21-12-13-8-11-6-16-9-12-8 2-5 11-20 14-24 12-21 14-24 5 1 14 8 13 8 14 7v2l4 1 13 7 15 9 4 2v2l4 1z" fill="#7E49B3"/>
<path transform="translate(504,152)" d="m0 0h4l1 8 1 43h2v-2l5-1v-2l16-8 15-9 8-5 6-2v-2l5-2 12-7h2v-2l7-2v-2l6-2 3 7 2 1 8 16 6 10v3h2l9 16 6 10v3h2l5 10 5 8v2h2l1 5h2l-1 5-11 6-6 4h-2v2l-6 2-3 3-5 1v2l-9 4-4 1-1 3-5 1v2l-10 5h-2v2l-14 8-4 2 7 3v2l5 2 9 5 5 2v2l9 3 5 3v2l4 1 3 1 1 2 4 1 1 2 4 1 3 3 11 6 12 7v4l-3 3-5 9-8 16h-2l-2 5-6 12h-2l-1 5-4 7h-2l-1 5h-2l-1 5-3 3-2 6-2 1-2 5h-2l-1 6-4 2-4-1-1-2-6-2v-2l-5-1-2-1v-2l-5-1-9-5v-2l-5-1-3-2v-2l-5-2-5-3-4-1v-2l-7-2-1-2-8-3-8-5-5-2 1 96h-78l-2-2-5-22-8-28 1-4 7-4 7-1v-2l24-12 8-3 8-5 5-2h3v-2l5-2h3v-2l8-2v-2l8-3 18-9 7-3 15-7 12-6h4v-2l12-6h4v-2l14-7-11-12-83-83-11 1-9 4-8 3h-4v2l-11 3-5 1v2l-7 2-17 6-3 2-5-1 6-8 9-11 1-3 5-5 10-14 13-17-1-4-30-30 1-3 3-2h5v-2l17-7 9-3v-2l19-8 10-4h3v-2z" fill="#965ACE"/>
<path transform="translate(314,156)" d="m0 0 5 1 14 8 13 8 14 7v2l4 1 13 7 15 9 4 3-12 6-10 4-13 6h-2l5 22 3 9 7 27 4 14 6 22 2 10-8 11-2 3h-2l-2 5-2 3h-2l-1 4-5 7h-2l-2 5-13 16-5 8h-2l-2 5-10 13-9 12-1 2h-2l-2 5-5 7-3-4-13-23-11-19-8-14-10-17-1-4 10-6 14-8 21-13 11-6 12-7 14-8-9-6-21-12-13-8-11-6-16-9-12-8 2-5 11-20 14-24 12-21z" fill="#5D358C"/>
<path transform="translate(592,155)" d="m0 0 3 1 2 6 2 1 8 16 6 10v3h2l9 16 6 10v3h2l5 10 5 8v2h2l1 5h2l-1 5-11 6-8 5-5-1-2-5h-2v-2h-2v-2l-4-2v-2h-2v-2h-2v-2h-2v-2h-2v-2h-2v-2h-2v-3l-3-1v-2l-4-2-4-5-2-1v-2l-9 1-17 6-12 5-16 6h-5v2l-15 5-9 4-11 2-6-7-7-6-6-7-8-7v-2l-3-1 1-5h2l1-4h2l1-4h2l1-4h2l1-4h2l1-4 5-6h2l2-6h2l1-4h2l3-6h2l4-8h2l1-4 2-2 1 2 1 39h3v-2l5-1v-2l16-8 15-9 8-5 6-2v-2l5-2 12-7h2v-2l7-2v-2z" fill="#AC6BE3"/>
<path transform="translate(377,296)" d="m0 0 3 1 6 23-2 5-8 11h-2l-2 5-2 3h-2l-1 4-5 7h-2l-2 5-13 16-5 8h-2l-2 5-10 13-9 12-1 2h-2l-2 5-5 7-3-4-13-23-11-19-8-14-10-17-1-4 10-6 14-8 21-13h2v2l24-9 19-7 9-3 16-6z" fill="#3B1F58"/>
<path transform="translate(411,284)" d="m0 0 3 1-2 3h-2l-2 5-2 3h-2l-1 4-3 4h-2l-2 5-2 3h-2l-1 4-3 4v8l4 13 4 17 5 18 6 22 4 15 5 19v4l-16 8v-50l-24 13-13 8-21 12-3 2h-3v2l-8 4-8 5-5 2-4-5-4-7 1-5 6-9h2l2-5 11-14 9-13h2l2-5 13-16 5-8h2l2-5 3-3 1-3h2l4-8h2l2-4 7-10-4-18-2-8 12-4 9-4z" fill="#5D358C"/>
<path transform="translate(314,156)" d="m0 0 5 1 14 8 13 8 4 2-2 1 10 40-1 4-8 4-13 5-13 6h-3v2l-12 5-11 5-12 5-10 5h-3l-11-7 2-5 11-20 14-24 12-21z" fill="#3B1F58"/>
<path transform="translate(592,155)" d="m0 0 3 1 2 6 2 1 8 16 6 10v3h2l7 13-1 3-13 4-4 2h-4v2l-11 3-1 1-7-1v-3l-4-2-1-3h-2l-4-5-7-6-7-8-4-4v-2h-2l1-5 5-5 6-2v-2l5-2 12-7h2v-2l7-2v-2z" fill="#BD78EF"/>
<path transform="translate(625,335)" d="m0 0 5 2 17 10v4l-3 3-5 9-8 16h-2l-2 5h-3v-2l-4-2-5-6-7-6-6-7-7-6-3-4 30-15z" fill="#AB6BE2"/>
<path transform="translate(347,175)" d="m0 0 9 3 4 2v2l4 1 13 7 15 9 4 3-12 6-10 4-13 6h-3l-6-21-5-19z" fill="#5C348B"/>
<path transform="translate(400,160)" d="m0 0h2l4 5 2 1v2h2l4 5 10 10v2h2l-1 4-24 11h-1z" fill="#5E368E"/>
<path transform="translate(411,284)" d="m0 0 3 1-2 3h-2l-2 5-2 3h-2l-1 4-3 4h-2l-2 5-2 3h-2l-1 4-4 6-2-2-6-24 12-4 9-4z" fill="#5E368E"/>
<path transform="translate(592,155)" d="m0 0 3 1v3h-2l-1 3-2-1v-2h-2v-2z" fill="#8752B8"/>
</svg>
